<svg width="129" height="31" viewBox="0 0 129 31" fill="none" xmlns="http://www.w3.org/2000/svg">
<g style="mix-blend-mode:plus-lighter" opacity="0.9" clip-path="url(#clip0_37_883)">
<path fill-rule="evenodd" clip-rule="evenodd" d="M7.64443 1.90833V30.5326H0V1.90833H7.64443Z" fill="white"/>
<path fill-rule="evenodd" clip-rule="evenodd" d="M11.4666 1.90833H27.711C32.9884 1.90833 37.2666 6.18016 37.2666 11.4497C37.2666 16.7194 32.9884 20.9912 27.711 20.9912H19.111V30.5326H11.4666V1.90833ZM19.111 13.358H27.711C28.7665 13.358 29.6221 12.5037 29.6221 11.4497C29.6221 10.3958 28.7665 9.54146 27.711 9.54146H19.111V13.358Z" fill="white"/>
<path fill-rule="evenodd" clip-rule="evenodd" d="M65.9333 1.90833V16.6975C65.9333 20.1227 68.714 22.8995 72.1443 22.8995C75.5747 22.8995 78.3556 20.1227 78.3556 16.6975V1.90833H86.0002V16.6975C86.0002 24.3385 79.7967 30.5326 72.1443 30.5326C64.4921 30.5326 58.2888 24.3385 58.2888 16.6975V1.90833H65.9333Z" fill="white"/>
<path fill-rule="evenodd" clip-rule="evenodd" d="M40.1334 15.2663C40.1334 7.88889 46.1229 1.90833 53.5112 1.90833H55.4223V9.54146H53.5112C50.3448 9.54146 47.7779 12.1046 47.7779 15.2663V16.2205C47.7779 24.1248 41.3606 30.5326 33.4445 30.5326H32.489V22.8995H33.4445C37.1387 22.8995 40.1334 19.9092 40.1334 16.2205V15.2663Z" fill="white"/>
<path d="M129 2.86243C129 4.4433 127.717 5.72485 126.133 5.72485C124.55 5.72485 123.267 4.4433 123.267 2.86243C123.267 1.28155 124.55 0 126.133 0C127.717 0 129 1.28155 129 2.86243Z" fill="white"/>
<path d="M94.2082 30.5325L97.8561 15.28L100.568 24.456C102.185 29.9288 109.948 29.9288 111.566 24.456L114.277 15.28L117.925 30.5325H125.784L120.049 6.54879C118.685 0.845272 110.635 0.634094 108.973 6.25829L106.067 16.0931L103.16 6.2583C101.499 0.634127 93.4487 0.845241 92.0847 6.54878L86.3491 30.5325H94.2082Z" fill="white"/>
</g>
<defs>
<clipPath id="clip0_37_883">
<rect width="129" height="30.5325" fill="white"/>
</clipPath>
</defs>
</svg>
