<svg width="180" height="33" viewBox="0 0 180 33" fill="none" xmlns="http://www.w3.org/2000/svg">
<g style="mix-blend-mode:plus-lighter" opacity="0.9" clip-path="url(#clip0_37_871)">
<path d="M16.3637 32.7273C25.4013 32.7273 32.7273 25.4013 32.7273 16.3636V4.90909C32.7273 3.60712 32.2101 2.35847 31.2895 1.43784C30.3688 0.517206 29.1202 0 27.8182 0L17.1818 0V7.17873C17.1818 8.81673 17.2817 10.5136 18.1407 11.9078C18.7558 12.907 19.5785 13.7622 20.5531 14.4154C21.5278 15.0686 22.6315 15.5045 23.7895 15.6935L24.1028 15.7443C24.232 15.7884 24.3442 15.8719 24.4236 15.9829C24.503 16.094 24.5457 16.2271 24.5457 16.3636C24.5457 16.5002 24.503 16.6333 24.4236 16.7443C24.3442 16.8554 24.232 16.9388 24.1028 16.983L23.7895 17.0337C22.0976 17.3101 20.5353 18.1109 19.3231 19.3231C18.1109 20.5353 17.3101 22.0976 17.0337 23.7895L16.983 24.1028C16.9389 24.232 16.8554 24.3442 16.7444 24.4236C16.6333 24.503 16.5002 24.5457 16.3637 24.5457C16.2271 24.5457 16.094 24.503 15.983 24.4236C15.8719 24.3442 15.7884 24.232 15.7443 24.1028L15.6936 23.7895C15.5045 22.6315 15.0685 21.5278 14.4153 20.5532C13.7621 19.5785 12.907 18.7558 11.9078 18.1407C10.5137 17.2816 8.81674 17.1818 7.17874 17.1818H0.0196533C0.447562 25.839 7.60093 32.7273 16.3637 32.7273Z" fill="white"/>
<path d="M0 15.5455H7.17873C8.81673 15.5455 10.5136 15.4456 11.9078 14.5865C12.9977 13.9151 13.9151 12.9977 14.5865 11.9078C15.4456 10.5136 15.5455 8.81673 15.5455 7.17873V0H4.90909C3.60712 0 2.35847 0.517206 1.43784 1.43784C0.517206 2.35847 0 3.60712 0 4.90909L0 15.5455ZM38.0086 1.63636C38.0086 2.07035 37.8362 2.48657 37.5294 2.79345C37.2225 3.10033 36.8063 3.27273 36.3723 3.27273C35.9383 3.27273 35.5221 3.10033 35.2152 2.79345C34.9083 2.48657 34.7359 2.07035 34.7359 1.63636C34.7359 1.20237 34.9083 0.786158 35.2152 0.47928C35.5221 0.172402 35.9383 0 36.3723 0C36.8063 0 37.2225 0.172402 37.5294 0.47928C37.8362 0.786158 38.0086 1.20237 38.0086 1.63636ZM173.218 9.90327C177.793 9.90327 180 13.0983 180 16.7989V23.7494H175.213V17.6236C175.213 15.9464 174.601 14.562 172.846 14.562C171.091 14.562 170.506 15.9464 170.506 17.6236V23.7485H165.719V17.6236C165.719 15.9464 165.134 14.562 163.378 14.562C161.623 14.562 161.011 15.9464 161.011 17.6236V23.7485H156.224V16.7981C156.224 13.0975 158.431 9.90246 163.006 9.90246C165.506 9.90246 167.314 10.8875 168.139 12.5116C169.016 10.8875 170.931 9.90164 173.218 9.90164V9.90327ZM147.622 19.4891C149.164 19.4891 149.83 18.0777 149.83 16.3996V10.4351H154.616V16.9855C154.616 20.8996 152.329 24.1486 147.622 24.1486C142.914 24.1486 140.627 20.9005 140.627 16.9855V10.4351H145.415V16.3996C145.415 18.0769 146.079 19.4891 147.622 19.4891ZM133.589 24.1748C130.583 24.1748 128.642 23.1365 127.498 21.1132L130.956 19.1692C131.434 20.0209 132.152 20.4472 133.349 20.4472C134.333 20.4472 134.785 20.1011 134.785 19.6748C134.785 18.0507 127.764 19.7018 127.764 14.5366C127.764 12.033 129.891 10.0096 133.508 10.0096C136.673 10.0096 138.402 11.5535 139.174 13.0451L135.716 15.0153C135.424 14.2167 134.519 13.7373 133.615 13.7373C132.923 13.7373 132.551 14.0302 132.551 14.4295C132.551 16.0805 139.572 14.5628 139.572 19.5685C139.572 22.3642 136.833 24.1748 133.589 24.1748ZM116.863 29.8735H112.076V17.0656C112.076 12.9911 115.135 10.0358 119.39 10.0358C123.539 10.0358 126.704 13.2046 126.704 17.0656C126.704 21.3259 123.884 24.1486 119.656 24.1486C118.672 24.1486 117.688 23.8557 116.863 23.4025V29.8735ZM119.39 19.6486C120.906 19.6486 121.916 18.477 121.916 17.0918C121.916 15.6813 120.906 14.5358 119.39 14.5358C117.874 14.5358 116.863 15.6813 116.863 17.0926C116.863 18.477 117.874 19.6486 119.39 19.6486ZM107.281 9.02455C105.712 9.02455 104.409 7.71955 104.409 6.14864C104.409 4.57773 105.712 3.27273 107.281 3.27273C108.85 3.27273 110.153 4.57773 110.153 6.14864C110.153 7.71955 108.85 9.02455 107.281 9.02455ZM104.888 10.4351H109.675V23.7494H104.888V10.4351ZM95.7027 24.1486C91.5537 24.1486 88.389 20.9536 88.389 17.0656C88.389 13.2046 91.5537 10.0096 95.7027 10.0096C99.8517 10.0096 103.016 13.2046 103.016 17.0656C103.016 20.9536 99.8517 24.1486 95.7027 24.1486ZM95.7027 19.6486C97.2188 19.6486 98.2293 18.477 98.2293 17.0918C98.2293 15.6813 97.2188 14.5096 95.7027 14.5096C94.1866 14.5096 93.1762 15.6813 93.1762 17.0918C93.1762 18.477 94.1866 19.6486 95.7027 19.6486ZM79.3497 30.2727C76.0525 30.2727 73.6585 28.8082 72.4353 26.1982L76.3977 24.0685C76.8232 24.9742 77.6209 25.9061 79.2695 25.9061C80.9992 25.9061 82.1422 24.8138 82.2755 22.8968C81.6374 23.4565 80.6261 23.8819 79.1108 23.8819C75.4135 23.8819 72.4345 21.033 72.4345 17.0386C72.4345 13.1785 75.6 10.0358 79.749 10.0358C84.0044 10.0358 87.0627 12.9919 87.0627 17.0656V22.338C87.0627 27.1309 83.7376 30.2727 79.3497 30.2727ZM79.6688 19.3827C81.1047 19.3827 82.1954 18.3968 82.1954 16.9323C82.1954 15.4947 81.1055 14.5358 79.6688 14.5358C78.2591 14.5358 77.1423 15.4947 77.1423 16.9331C77.1423 18.3976 78.2591 19.3819 79.6688 19.3819V19.3827ZM64.3148 24.1486C60.1658 24.1486 57.0003 20.9536 57.0003 17.0656C57.0003 13.2046 60.1658 10.0096 64.3148 10.0096C68.463 10.0096 71.6285 13.2046 71.6285 17.0656C71.6285 20.9536 68.4638 24.1486 64.3148 24.1486ZM64.3148 19.6486C65.8309 19.6486 66.8414 18.477 66.8414 17.0918C66.8414 15.6813 65.8309 14.5096 64.3148 14.5096C62.7987 14.5096 61.7883 15.6813 61.7883 17.0918C61.7883 18.477 62.7987 19.6486 64.3148 19.6486ZM48.2834 5.77636V19.2224H56.2091V23.7494H47.6182C44.5868 23.7494 43.3636 22.1515 43.3636 19.6216V5.77636H48.2834Z" fill="white"/>
</g>
<defs>
<clipPath id="clip0_37_871">
<rect width="180" height="32.7273" fill="white"/>
</clipPath>
</defs>
</svg>
