<svg width="84" height="60" viewBox="0 0 84 60" fill="none" xmlns="http://www.w3.org/2000/svg">
<g style="mix-blend-mode:plus-lighter" opacity="0.9">
<path d="M6.84254 54.1768V42H4.84619V54.1768H6.84254Z" fill="white"/>
<path d="M8.06445 50.1179C8.06445 52.6056 9.73356 54.3731 12.2699 54.3731C14.8062 54.3731 16.4753 52.6056 16.4753 50.1179C16.4753 47.6301 14.8062 45.8625 12.2699 45.8625C9.73356 45.8625 8.06445 47.6301 8.06445 50.1179ZM10.0771 50.1179C10.0771 48.6612 10.9444 47.6465 12.2699 47.6465C13.5953 47.6465 14.4626 48.6612 14.4626 50.1179C14.4626 51.5581 13.5953 52.5892 12.2699 52.5892C10.9444 52.5892 10.0771 51.5581 10.0771 50.1179Z" fill="white"/>
<path d="M17.1467 49.9541C17.1467 52.311 18.6685 54.0131 20.943 54.0131C22.1212 54.0131 23.1358 53.5384 23.643 52.7528V54.1276C23.643 55.4533 22.8085 56.3371 21.4176 56.3371C20.174 56.3371 19.3231 55.7315 19.2085 54.6677H17.1958C17.4576 56.779 19.0776 58.1538 21.303 58.1538C23.9212 58.1538 25.5903 56.4353 25.5903 53.7675V46.0916H23.823L23.7085 47.1882C23.2176 46.3371 22.203 45.8297 21.0085 45.8297C18.7012 45.8297 17.1467 47.581 17.1467 49.9541ZM19.1758 49.905C19.1758 48.5629 20.0267 47.581 21.2867 47.581C22.6612 47.581 23.5776 48.5793 23.5776 49.905C23.5776 51.2471 22.6612 52.2782 21.2867 52.2782C20.043 52.2782 19.1758 51.2635 19.1758 49.905Z" fill="white"/>
<path d="M26.5781 50.1179C26.5781 52.6056 28.2472 54.3731 30.7835 54.3731C33.3199 54.3731 34.9889 52.6056 34.9889 50.1179C34.9889 47.6301 33.3199 45.8625 30.7835 45.8625C28.2472 45.8625 26.5781 47.6301 26.5781 50.1179ZM28.5908 50.1179C28.5908 48.6612 29.4581 47.6465 30.7835 47.6465C32.109 47.6465 32.9763 48.6612 32.9763 50.1179C32.9763 51.5581 32.109 52.5892 30.7835 52.5892C29.4581 52.5892 28.5908 51.5581 28.5908 50.1179Z" fill="white"/>
<path d="M37.1494 44.4387C37.8039 44.4387 38.3439 43.9149 38.3439 43.2439C38.3439 42.5893 37.8039 42.0656 37.1494 42.0656C36.4785 42.0656 35.9712 42.5893 35.9712 43.2439C35.9712 43.9149 36.4785 44.4387 37.1494 44.4387ZM36.1512 54.1768H38.1476V46.0917H36.1512V54.1768Z" fill="white"/>
<path d="M39.8967 57.9247H41.8439V53.0639C42.3512 53.8986 43.4476 54.3896 44.6585 54.3896C47.0476 54.3896 48.4712 52.5565 48.4384 50.036C48.3894 47.4992 46.933 45.8462 44.6421 45.8462C43.4149 45.8462 42.3021 46.3863 41.8112 47.3192L41.6967 46.0917H39.8967V57.9247ZM41.9257 50.1342C41.9257 48.6776 42.8094 47.6629 44.2003 47.6629C45.5912 47.6629 46.4257 48.694 46.4257 50.1342C46.4257 51.5745 45.5912 52.5892 44.2003 52.5892C42.8094 52.5892 41.9257 51.5909 41.9257 50.1342Z" fill="white"/>
<path d="M48.9453 51.7545C49.0108 53.3585 50.2544 54.3896 52.1853 54.3896C54.0834 54.3896 55.3762 53.3749 55.3762 51.8036C55.3762 50.6416 54.6562 49.856 53.3308 49.5287L51.9071 49.1849C51.3017 49.0213 50.8926 48.8086 50.8926 48.2849C50.8926 47.7284 51.3344 47.3356 52.0544 47.3356C52.8071 47.3356 53.298 47.7611 53.298 48.4649H55.1144C55.0489 46.8609 53.8544 45.8462 52.1035 45.8462C50.369 45.8462 49.0762 46.8609 49.0762 48.3994C49.0762 49.4469 49.6817 50.3143 51.2363 50.7234L52.6435 51.0835C53.1671 51.2308 53.4944 51.4763 53.4944 51.9346C53.4944 52.5729 52.889 52.8675 52.1526 52.8675C51.269 52.8675 50.7616 52.4583 50.7616 51.7545H48.9453Z" fill="white"/>
<path d="M59.517 54.3895C60.6133 54.3895 61.6606 53.8821 62.1351 53.1293L62.266 54.1768H64.1315V46.0917H62.1351V50.3306C62.1351 51.7872 61.5788 52.6056 60.2698 52.6056C59.2552 52.6056 58.5516 52.1146 58.5516 50.4451V46.0917H56.5552V51.149C56.5552 53.0802 57.6024 54.3895 59.517 54.3895Z" fill="white"/>
<path d="M67.8898 54.1768V49.5287C67.8898 48.2194 68.6589 47.5974 69.6081 47.5974C70.5571 47.5974 71.1789 48.203 71.1789 49.3487V54.1768H73.1262V49.545C73.1262 48.2194 73.8789 47.5974 74.828 47.5974C75.7934 47.5974 76.4153 48.203 76.4153 49.3487V54.1768H78.3462V48.8904C78.3462 47.0246 77.3152 45.8462 75.3516 45.8462C74.1243 45.8462 73.1589 46.4354 72.7662 47.3847C72.3244 46.4354 71.4408 45.8462 70.099 45.8462C69.1498 45.8462 68.2989 46.2881 67.8244 47.0082L67.7262 46.0917H65.8936V54.1768H67.8898Z" fill="white"/>
<path d="M36.7396 30.9768C34.1096 35.7098 28.7547 37.9615 23.3401 37.9615H1.61548C24.2309 35.1346 39.9809 23.8269 42.0001 8.0769C44.0193 23.8269 59.7693 35.1346 82.3847 37.9615H60.6601C55.2455 37.9615 49.8906 35.7098 47.2606 30.9768C44.414 25.8542 42.6004 20.0577 42.0001 13.7308C41.3998 20.0577 39.5862 25.8542 36.7396 30.9768Z" fill="white"/>
<path d="M24.3156 29.3041C23.0469 30.0183 21.7124 30.6892 20.3151 31.3141C19.5214 28.5723 19.2294 25.6957 19.4623 22.8302C19.7704 19.0393 20.9879 15.3846 23.0068 12.1899C25.0258 8.99524 27.7838 6.35909 31.0367 4.51504C34.2896 2.67099 37.937 1.67594 41.6557 1.61804C45.3744 1.56013 49.0496 2.44115 52.3559 4.18306C55.6622 5.92496 58.4974 8.47396 60.6104 11.6043C62.7235 14.7347 64.0492 18.3498 64.4701 22.1293C64.8142 25.2207 64.5444 28.3442 63.6847 31.3141C62.2874 30.6892 60.9529 30.0183 59.6842 29.304C60.2191 27.1328 60.369 24.874 60.1198 22.636C59.7804 19.5882 58.7114 16.673 57.0075 14.1487C55.3035 11.6244 53.0171 9.56886 50.351 8.16421C47.6848 6.75952 44.721 6.04908 41.7223 6.09577C38.7235 6.14246 35.7823 6.94487 33.1592 8.43188C30.5361 9.91892 28.3119 12.0447 26.6839 14.6209C25.0558 17.1971 24.0741 20.1442 23.8256 23.2013C23.6586 25.256 23.8263 27.3179 24.3156 29.3041Z" fill="white"/>
</g>
</svg>
