<svg width="135" height="44" viewBox="0 0 135 44" fill="none" xmlns="http://www.w3.org/2000/svg">
<g style="mix-blend-mode:plus-lighter">
<g clip-path="url(#clip0_36_755)">
<path fill-rule="evenodd" clip-rule="evenodd" d="M24.3636 26.4572C23.58 26.4572 22.8285 26.1637 22.2745 25.6413C21.7204 25.1188 21.4091 24.4103 21.4091 23.6715V10.8572H15.5V23.6715C15.5 28.2868 19.4685 32.0286 24.3636 32.0286H30.8636V26.4572H24.3636ZM42.0909 16.4286C41.3925 16.4286 40.701 16.5583 40.0557 16.8103C39.4105 17.0623 38.8242 17.4316 38.3304 17.8973C37.8365 18.3629 37.4448 18.9156 37.1775 19.524C36.9103 20.1324 36.7727 20.7844 36.7727 21.4429C36.7727 22.1014 36.9103 22.7534 37.1775 23.3618C37.4448 23.9701 37.8365 24.5229 38.3304 24.9885C38.8242 25.4541 39.4105 25.8235 40.0557 26.0755C40.701 26.3275 41.3925 26.4572 42.0909 26.4572C43.5014 26.4572 44.8541 25.9289 45.8514 24.9885C46.8488 24.0482 47.4091 22.7728 47.4091 21.4429C47.4091 20.113 46.8488 18.8376 45.8514 17.8973C44.8541 16.9569 43.5014 16.4286 42.0909 16.4286ZM30.8636 21.4429C30.8636 15.5968 35.8905 10.8572 42.0909 10.8572C48.2913 10.8572 53.3182 15.5968 53.3182 21.4429C53.3182 27.289 48.2913 32.0286 42.0909 32.0286C35.8905 32.0286 30.8636 27.289 30.8636 21.4429ZM105.909 16.4286C104.499 16.4286 103.146 16.9569 102.149 17.8973C101.151 18.8376 100.591 20.113 100.591 21.4429C100.591 22.7728 101.151 24.0482 102.149 24.9885C103.146 25.9289 104.499 26.4572 105.909 26.4572C107.32 26.4572 108.672 25.9289 109.67 24.9885C110.667 24.0482 111.227 22.7728 111.227 21.4429C111.227 20.113 110.667 18.8376 109.67 17.8973C108.672 16.9569 107.32 16.4286 105.909 16.4286ZM94.6818 21.4429C94.6818 15.5968 99.7087 10.8572 105.909 10.8572C112.109 10.8572 117.136 15.5968 117.136 21.4429C117.136 27.289 112.109 32.0286 105.909 32.0286C99.7087 32.0286 94.6818 27.289 94.6818 21.4429ZM65.7273 10.8572C59.5269 10.8572 54.5 15.5968 54.5 21.4429C54.5 27.289 59.5269 32.0286 65.7273 32.0286H82.2727C83.4362 32.0286 84.5584 31.8615 85.6137 31.5517L88.7727 33.1429L92.1811 27.1235C93.0469 25.5912 93.4998 23.8817 93.5 22.1454V21.4429C93.5 15.5968 88.4731 10.8572 82.2727 10.8572H65.7273ZM87.5909 21.4429C87.5909 20.113 87.0306 18.8376 86.0332 17.8973C85.0359 16.9569 83.6832 16.4286 82.2727 16.4286H65.7273C65.0289 16.4286 64.3373 16.5583 63.6921 16.8103C63.0469 17.0623 62.4606 17.4316 61.9667 17.8973C61.4729 18.3629 61.0812 18.9156 60.8139 19.524C60.5466 20.1324 60.4091 20.7844 60.4091 21.4429C60.4091 22.1014 60.5466 22.7534 60.8139 23.3618C61.0812 23.9701 61.4729 24.5229 61.9667 24.9885C62.4606 25.4541 63.0469 25.8235 63.6921 26.0755C64.3373 26.3275 65.0289 26.4572 65.7273 26.4572H82.2727C83.6761 26.4572 85.0225 25.9343 86.0187 25.0023C87.0149 24.0704 87.58 22.805 87.5909 21.4819V21.4429Z" fill="white" fill-opacity="0.7"/>
<path d="M119.5 12.25C119.5 12.6194 119.344 12.9737 119.067 13.2349C118.79 13.4961 118.414 13.6429 118.023 13.6429C117.631 13.6429 117.255 13.4961 116.978 13.2349C116.701 12.9737 116.545 12.6194 116.545 12.25C116.545 11.8806 116.701 11.5263 116.978 11.2651C117.255 11.0039 117.631 10.8572 118.023 10.8572C118.414 10.8572 118.79 11.0039 119.067 11.2651C119.344 11.5263 119.5 11.8806 119.5 12.25Z" fill="white" fill-opacity="0.7"/>
</g>
</g>
<defs>
<clipPath id="clip0_36_755">
<rect width="104" height="22.2857" fill="white" transform="translate(15.5 10.8572)"/>
</clipPath>
</defs>
</svg>
